Patient4_TMGait_0pt3_02_left_13_EMG.mot
version=1
nRows=33
nColumns=33
inDegrees=no
endheader
time	1LAddLong	2LGlutMax	3LGlutMed	4LIliopsoas	5LSemiMemb	6LBicFemLong	7LRecFem	8LVastMed	9LVastLat	10LGasMed	11LTibAnt	12lTibPost	13LPeroneusLong	14LSol	15LExtDigLong	16LFlexDigLong	17RAddLong	18RGlutMax	19RGlutMed	20RIliopsoas	21RSemiMemb	22RBicFemLong	23RRecFem	24RVastMed	25RVastLat	26RGasMed	27RTibAnt	28RTibPost	29RPeroneusLong	30RSol	31RExtDigLong	32RFlexDigLong
25.29	0.010071	0.62607	0.026398	-0.007324	0.015717	-0.018311	-0.008392	0.015106	-0.019226	0.00061	-0.19989	0.014496	-0.011139	0.071564	-0.2124	-0.034943	-0.044556	0.34744	-0.81268	0.040588	0.061493	-0.22858	-1.0902	-0.12863	0.39169	0.002289	0.19608	-0.003204	-2.0058	-0.059662	-0.00473	0.003204
25.291	0.012665	0.68512	-0.022888	0.026093	0.014954	-0.013123	0.022736	0.014038	-0.008392	0.018005	0.046234	0.009155	-0.048828	0.072327	-0.13245	-0.028992	-0.017395	0.30075	-1.028	0.024414	-0.050507	-0.11231	-0.7399	-0.064545	0.28305	-0.001678	0.13641	-0.00351	-0.43747	-0.084991	-0.000305	0.002441
25.292	0.009918	0.64224	-0.032501	0.041809	0.01358	-0.011749	0.097046	0.014801	-0.001678	0.005646	0.30273	0.022736	-0.10132	-0.039825	0.31921	-0.027924	-0.00351	0.34058	0.35721	-0.19318	-0.19028	-0.055084	-0.29877	0.4538	0.086517	0.000458	-0.10757	-0.007782	0.90591	-0.005646	-0.004272	0.00061
25.293	0.011597	0.66299	-0.01709	0.041046	0.013275	-0.028839	0.1033	0.014191	0.00946	0.018005	0.31632	0.009155	-0.13779	-0.17349	0.24246	-0.034485	-0.034943	0.27435	1.0724	-0.27679	-0.3009	-0.14236	-0.087128	0.71014	0.10147	0.003662	-0.099487	-0.006561	0.32364	-0.093689	0.006409	-0.005188
25.294	0.015106	0.72205	-0.020294	0.007477	0.014954	-0.025024	0.10193	0.004578	0.002747	0.020752	0.21439	0.015869	-0.083466	-0.12894	0.47714	-0.047302	-0.062866	0.3006	0.11231	-0.097198	0.027161	-0.034485	0.093079	0.60974	0.27542	0.00061	-0.041199	-0.002594	0.44784	-0.13199	-0.001984	-0.005493
25.295	0.013123	0.737	-0.007019	-0.036926	0.010986	-0.042877	0.068817	-0.010071	0.006104	-0.00946	-0.13046	0.010071	0.001221	-0.11124	0.18646	-0.047302	-0.068054	0.26245	-0.15595	-0.03067	0.095215	0.11871	0.056	0.42618	0.62347	-0.001373	-0.056915	-0.003052	-0.31265	-0.15732	-0.00946	-0.00061
25.296	0.004425	0.78125	0.003052	-0.026855	0.009918	-0.055847	0.076599	0.007629	0.00885	-0.025482	-0.25391	0.007629	0.070496	-0.056763	0.10239	-0.036163	-0.071716	0.21332	-0.095673	-0.060425	0.10407	0.37567	-0.090027	0.28351	0.49469	-0.009766	0.011444	-0.004578	-0.64957	0.1149	-0.006561	-0.006866
25.297	0.003357	0.77942	0.007477	0.01236	0.018463	-0.055847	0.11505	-0.012665	-0.000153	0.006104	-0.014801	0.020599	0.020142	-0.10574	-0.13565	-0.016479	-0.069275	0.18646	0.19409	-0.090179	0.1268	0.23193	-0.44891	-0.066833	0.19669	-0.022888	-0.016479	-0.003662	-0.21698	0.12146	-0.001373	0.002441
25.298	0.014954	0.77606	-0.000305	-0.006561	0.01709	-0.072174	0.032654	-0.015564	0.006256	-0.006409	0.078278	0.010834	-0.021973	-0.084686	-0.32638	-0.018463	-0.062256	0.14908	0.24551	-0.07843	0.083771	-0.067444	-0.41641	-0.23926	-0.014648	-0.006561	-0.065155	-0.003204	1.0654	-0.059662	-0.000153	0.010986
25.299	0.00885	0.78293	-0.002899	-0.008545	0.020142	-0.055695	-0.092621	-0.016327	0.015869	0.01236	-0.049133	0.035095	-0.011444	-0.10208	-0.2829	0.006409	-0.006256	0.18082	0.26581	0.06424	-0.011292	-0.14755	0.011139	-0.439	-0.31998	0.003967	-0.10315	0.002594	0.52429	-0.15533	-0.002594	0.01236
25.3	0.00473	0.75653	0.006104	0.002899	0.016327	-0.033112	-0.068207	-0.013123	0.000458	-0.002899	-0.077667	0.023193	0.006561	-0.049591	0.33981	0.022583	0.020447	0.17883	0.54825	0.19913	-0.04715	-0.024567	0.2124	-0.30991	-0.63919	0.003815	-0.079803	-0.000458	-0.73944	-0.084686	-0.005035	0.010681
25.301	0.01236	0.72555	0.014038	0.008392	0.011292	-0.028381	0.007324	-0.010223	0.00824	-0.01297	-0.026093	-0.001984	-0.00351	-0.10498	0.60608	0.033569	0.027618	0.13596	0.87769	0.21072	-0.057526	0.017548	0.36194	-0.065155	-0.71259	0.002899	-0.11337	-0.003204	-0.095673	-0.09964	-0.003357	0.016632
25.302	0.010681	0.68436	-0.013733	0.004272	0.016632	-0.029602	0.074158	-0.023651	0.005493	-0.000305	0.18616	0.023651	-0.009308	-0.040588	-0.26611	0.04364	0.029602	0.088806	0.52658	0.095062	-0.028076	0.049133	0.43213	0.45975	-0.44281	0.00351	-0.19211	-0.005493	0.64987	-0.038605	-0.001678	0.01297
25.303	0.00946	0.61935	-0.019531	0.003204	0.015106	-0.030212	0.2623	-0.01709	0.00412	-0.009308	0.30228	0.021057	-0.036621	0.04364	0.021667	0.032196	0.019379	0.045013	0.2066	0.1265	-0.026093	0.22781	0.44128	0.34775	-0.070953	-0.003815	-0.05722	-0.00824	0.61966	0.10239	-0.003967	0.0177
25.304	0.006714	0.57281	-0.021973	0.008392	0.020142	-0.036163	0.31204	-0.014954	0.002441	-0.001831	0.15167	0.017242	-0.031891	0.10986	0.23895	0.029297	-0.010376	0.093536	-0.55832	0.087738	-0.021057	0.29678	0.21469	0.018616	0.022736	-0.005798	0.026855	-0.006866	0.49759	0.13001	-0.007935	0.01297
25.305	0.006561	0.55466	-0.041046	-0.014191	0.014191	-0.052185	0.26398	-0.019989	0.008087	-0.019226	-0.10223	0.023346	0.03418	0.090179	0.18494	0.026398	0.019684	0.076752	-0.8609	-0.057068	-0.006409	0.24384	0.10834	0.12375	0.035095	-0.006561	0.092316	-0.009766	-0.2092	0.080719	-0.003967	0.020447
25.306	0.002747	0.47012	-0.009613	-0.014954	0.02121	-0.027313	0.24216	-0.00946	0.015259	-0.02594	-0.34729	0.013733	0.092468	0.11734	-0.17624	0.033264	0.035706	0.083618	-0.905	-0.088043	0.044861	0.26077	-0.084991	0.2182	0.010834	-0.003052	0.095978	-0.015717	-0.6398	-0.02121	-0.002747	0.021667
25.307	0.001526	0.41946	0.019684	-0.014954	0.017853	-0.040436	0.24063	-0.015259	0.016174	-0.048981	-0.083008	0.02121	0.13229	0.13718	-0.51605	0.032349	0.048828	0.0737	-0.681	-0.21606	0.042725	0.095978	-0.11032	0.30807	0.043335	-0.007324	0.045471	-0.008545	0.15671	0.01709	-0.001221	0.018616
25.308	0.00351	0.38116	0.014343	-0.005493	0.014801	-0.030518	0.18829	-0.016632	0.022583	-0.021515	-0.17303	0.024719	0.03418	0.088806	-0.52902	0.016174	0.021057	0.092621	-0.64407	-0.22736	0.048981	-0.014496	-0.22812	-0.15945	0.039825	-0.019379	0.13748	-0.008545	0.32852	0.24948	-0.003967	0.021362
25.309	0.006714	0.3447	0.039673	-0.003357	0.019989	-0.038605	0.15533	-0.039215	0.009308	0.016785	-0.15137	0.015869	0.011292	-0.02655	-0.29663	0.012512	0.036163	0.054016	-0.012665	-0.055084	0.13855	-0.30182	-0.063629	-0.41336	0.13214	-0.014191	0.12665	-0.00824	0.39139	0.32318	-0.004272	0.01709
25.31	0.00824	0.3125	0.027161	0.028229	0.023651	-0.037689	0.13672	-0.040894	-0.004578	0.042572	0.023346	0.021057	0.005646	-0.067749	0.085297	0.016937	0.10742	0.080872	0.29114	0.10635	0.21011	-0.33463	0.13016	0.40543	0.1004	0.005798	0.063019	-0.007935	0.56442	0.019684	-0.000305	0.016479
25.311	0.002441	0.29327	0.020142	0.07019	0.020294	-0.018463	0.055695	-0.030823	0.00061	0.028381	0.20783	0.02594	-0.011444	-0.032806	0.27557	0.020905	0.083923	0.037384	0.17471	0.088348	0.02243	-0.24918	0.11795	0.3006	0.009766	0.018311	0.088806	-0.01236	-0.1648	-0.14862	-0.00351	0.021057
25.312	0.005951	0.30502	0.03952	0.06897	0.015411	-0.023804	-0.09079	-0.028076	0.009155	0.005493	0.34439	0.022736	-0.011902	0.002899	-0.21744	0.024872	0.04776	-0.10788	0.8931	0.007019	-0.56213	-0.12344	0.066071	-0.46524	0.003967	0.023346	0.030518	-0.00061	-0.50995	-0.17319	-0.001221	0.005341
25.313	0.01236	0.26138	0.033875	0.027008	0.018005	-0.019073	-0.069275	-0.031738	0.014038	-0.01358	0.26032	0.024414	-0.016174	-0.006866	-0.015869	0.023346	0.078888	-0.027771	0.50293	0.046539	-0.44739	0.017242	0.091858	-1.3007	0.003357	0.015259	0.14923	0.004425	-0.57739	-0.11902	0.009003	0.003357
25.314	0.003967	0.23315	0.033569	-0.002441	0.010986	-0.035858	-0.11337	-0.01709	0.00351	-0.035706	-0.089569	0.023956	0.028229	0.02594	-0.20203	0.033722	0.12909	-0.013733	0.60516	-0.032501	-0.22751	-0.093079	0.089722	-1.6585	-0.13351	-0.010071	0.055695	-0.003204	-0.57419	0.006409	-0.002136	-0.000763
25.315	0.002441	0.23224	0.035095	-0.012665	0.005035	-0.015259	-0.24674	-0.018158	-0.003357	-0.023193	-0.28198	0.03479	0.049133	-0.056763	-0.20691	0.032959	0.086517	-0.020599	0.32974	-0.16144	-0.2533	-0.1648	-0.064545	-1.4513	-0.13748	-0.027008	0.042877	0.000763	-0.21729	0.11429	-0.003052	0.007935
25.316	0.007019	0.18951	0.026093	-0.004272	0.01709	-0.019073	-0.26154	-0.027161	0.01358	0.000458	-0.1828	0.022736	0.03067	-0.11368	0.074463	0.037079	0.053711	0.011292	0.024109	-0.20309	-0.11795	-0.063782	-0.22125	-1.0097	-0.13489	0.016022	-0.008545	0.010376	-1.0471	0.19836	-0.00473	0.014191
25.317	0.003052	0.14893	0.024109	0.001221	0.015869	-0.010986	-0.32425	-0.031586	0.020599	0.00946	-0.088654	0.024109	0.017242	-0.056	0.29511	0.039063	-0.002441	0.027466	-0.58075	-0.15793	0.20447	0.002899	-0.32379	-0.58105	-0.12894	0.059052	-0.053253	-0.03891	-0.059357	0.23956	-0.003357	-0.002899
25.318	0.000763	0.159	0.044403	0.018616	0.005035	-0.017395	-0.31693	-0.042419	0.03418	0.005188	-0.086517	0.033722	0.025787	-0.016785	0.35767	0.037231	-0.00885	0.10483	-0.59555	-0.037842	-0.029755	0.07843	-0.54779	-0.38162	-0.047455	0.045319	0.006714	-0.33981	0.76446	-0.015717	-0.000153	-0.007019
25.319	0.009308	0.094452	0.034332	0.019379	0.012207	-0.019684	-0.177	-0.032959	0.038605	-0.000153	-0.019226	0.00885	0.088348	0.060577	0.27618	0.026398	-0.056152	0.098267	-1.0202	0.18326	0.049744	0.2214	-0.4837	0.090027	0.12116	0.020142	-0.065002	-0.1149	0.41397	-0.12604	-0.000458	-0.008087
25.32	0.001984	0.070953	0.020447	0.008545	0.014038	-0.036469	-0.099182	-0.045624	0.030365	-0.020447	0.097961	0.020905	0.072937	0.12955	0.17899	0.017242	-0.023804	0.13382	-0.47241	0.19699	0.091553	0.13336	-0.35645	0.31754	0.074768	-0.015869	-0.1503	0.018005	-0.42404	0.17044	-0.002899	-0.014038
25.321	0.00412	0.049438	0.028381	-0.00473	0.001068	-0.045319	-0.11795	-0.040588	0.033417	-0.024261	0.10239	0.028381	0.015411	-0.032959	0.22186	-0.025177	0.002747	0.1445	0.37048	0.23911	0.085602	0.13473	-0.33707	0.40451	0.039368	-0.070801	-0.042419	0.35797	0.22232	0.63248	-0.002594	-0.030518
25.322	0.006714	-0.000153	0.032654	0.000305	0.012207	-0.037384	-0.098114	-0.024719	0.028381	0.018463	0.10254	0.020905	-0.010071	-0.21927	0.006561	-0.037994	-0.017395	0.12528	2.2841	0.13702	0.0354	0.31464	0.035706	0.43381	0.12589	-0.097046	0.10239	0.099335	-0.23651	0.2153	-0.006561	-0.028076
